<svg width="129" height="36" viewBox="0 0 129 36" fill="none" xmlns="http://www.w3.org/2000/svg">
<path d="M70.1438 6.42979C75.3682 6.83062 79.421 8.4177 82.7965 10.1402V3.04437C82.7965 3.04437 76.0401 1.32729 69.6815 1.05104C47.5042 0.0489562 41.2209 8.81854 41.2209 17.9998C41.2209 27.181 47.5096 35.9506 69.6815 34.954C76.0401 34.6615 82.7965 32.9498 82.7965 32.9498V25.8594C79.4694 27.5277 75.3682 29.169 70.1438 29.559C61.1138 30.2523 55.685 25.8215 55.685 17.9998C55.685 10.1727 61.1138 5.7527 70.1438 6.4352M111.451 28.7627C111.069 28.8271 110.682 28.8633 110.295 28.871H100.62V20.0365H110.295C110.601 20.0365 111.177 20.0906 111.451 20.1448C112.421 20.361 113.288 20.9069 113.907 21.6909C114.525 22.475 114.857 23.4495 114.848 24.451C114.861 25.454 114.53 26.4308 113.911 27.2164C113.292 28.002 112.423 28.5482 111.451 28.7627ZM100.62 6.89562H109.392C109.709 6.89562 110.171 6.93354 110.343 6.96604C111.291 7.11022 112.154 7.59603 112.773 8.33322C113.392 9.07042 113.724 10.0089 113.708 10.9744C113.724 11.9392 113.391 12.877 112.772 13.6133C112.154 14.3496 111.29 14.8343 110.343 14.9773C110.026 15.019 109.707 15.0425 109.387 15.0477H100.625V6.90104L100.62 6.89562ZM119.427 17.6477V17.4581C124.334 16.7377 127.033 13.5256 127.033 9.76645C127.033 4.98354 123.087 2.22646 117.734 1.95562C117.32 1.93937 116.648 1.90145 116.1 1.90145H87.4405V34.109H118.374C124.447 34.109 129 30.8373 129 25.7294C129 21.0169 124.851 18.0269 119.427 17.6531V17.6477ZM23.4081 21.331C23.4081 26.0869 20.2315 29.6185 14.4534 29.6185C9.5245 29.6185 4.687 28.1452 0 25.8594V32.9498C0 32.9498 7.53575 35.0244 17.1516 35.0244C33.1208 35.0244 37.7755 28.9306 37.7755 21.3256V1.89604H23.4028V21.3256L23.4081 21.331Z" fill="white"/>
</svg>
