<svg width="125" height="125" viewBox="0 0 125 125" fill="none" xmlns="http://www.w3.org/2000/svg">
<path d="M59.5 124.25C51.4708 124.25 43.8823 122.707 36.7344 119.62C29.5865 116.538 23.3453 112.328 18.0108 106.989C12.6723 101.655 8.46192 95.4135 5.3795 88.2656C2.29317 81.1177 0.75 73.5292 0.75 65.5C0.75 57.3729 2.29317 49.7609 5.3795 42.6639C8.46192 35.563 12.6723 29.3453 18.0108 24.0108C23.3453 18.6723 29.5865 14.46 36.7344 11.3736C43.8823 8.29121 51.4708 6.75 59.5 6.75C62.6333 6.75 65.6452 6.96933 68.5358 7.408C71.4223 7.85058 74.2854 8.5125 77.125 9.39375V24.375C77.125 27.6063 75.9755 30.3714 73.6764 32.6705C71.3734 34.9735 68.6062 36.125 65.375 36.125H53.625V47.875C53.625 49.5396 53.063 50.9339 51.9389 52.058C50.8109 53.186 49.4146 53.75 47.75 53.75H36V65.5H71.25C72.9146 65.5 74.3109 66.062 75.4389 67.1861C76.563 68.3141 77.125 69.7104 77.125 71.375V89H83C85.6438 89 87.9702 89.7833 89.9795 91.35C91.9848 92.9167 93.3792 94.875 94.1625 97.225C97.9812 92.9167 100.993 88.0952 103.198 82.7607C105.399 77.4223 106.5 71.6687 106.5 65.5C106.5 64.4229 106.451 63.4437 106.353 62.5625C106.255 61.6813 106.108 60.7021 105.912 59.625H117.956C118.152 60.7021 118.25 61.6813 118.25 62.5625V65.5C118.25 73.5292 116.707 81.1177 113.62 88.2656C110.538 95.4135 106.328 101.655 100.989 106.989C95.6548 112.328 89.437 116.538 82.3361 119.62C75.2391 122.707 67.6271 124.25 59.5 124.25ZM53.625 112.206V100.75C50.3937 100.75 47.6286 99.6005 45.3295 97.3014C43.0265 94.9984 41.875 92.2312 41.875 89V83.125L13.675 54.925C13.3812 56.6875 13.111 58.45 12.8642 60.2125C12.6214 61.975 12.5 63.7375 12.5 65.5C12.5 77.6417 16.4421 88.0933 24.3264 96.8549C32.2067 105.62 41.9729 110.738 53.625 112.206ZM94.75 47.875C93.0854 47.875 91.6911 47.311 90.567 46.183C89.439 45.0589 88.875 43.6646 88.875 42V24.375C88.875 22.7104 89.439 21.3141 90.567 20.1861C91.6911 19.062 93.0854 18.5 94.75 18.5V12.625C94.75 9.39375 95.8995 6.62663 98.1986 4.32363C100.502 2.02454 103.269 0.875 106.5 0.875C109.731 0.875 112.498 2.02454 114.801 4.32363C117.1 6.62663 118.25 9.39375 118.25 12.625V18.5C119.915 18.5 121.309 19.062 122.433 20.1861C123.561 21.3141 124.125 22.7104 124.125 24.375V42C124.125 43.6646 123.561 45.0589 122.433 46.183C121.309 47.311 119.915 47.875 118.25 47.875H94.75ZM100.625 18.5H112.375V12.625C112.375 10.9604 111.811 9.56413 110.683 8.43612C109.559 7.31204 108.165 6.75 106.5 6.75C104.835 6.75 103.441 7.31204 102.317 8.43612C101.189 9.56413 100.625 10.9604 100.625 12.625V18.5Z" fill="#20BAA0"/>
</svg>
