<svg width="108" height="79" viewBox="0 0 108 79" fill="none" xmlns="http://www.w3.org/2000/svg">
<path d="M90.5445 66.4397C90.5445 67.6309 89.6839 68.4882 88.4453 68.4882C87.1695 68.4882 86.346 67.5774 86.346 66.4397C86.346 65.3019 87.1695 64.3912 88.4453 64.3912C89.6839 64.3912 90.5445 65.3019 90.5445 66.4397ZM32.2684 64.3912C30.9353 64.3912 30.1691 65.3019 30.1691 66.4397C30.1691 67.5774 30.9386 68.4882 32.2684 68.4882C33.4868 68.4882 34.3103 67.6309 34.3103 66.4397C34.29 65.3019 33.4868 64.3912 32.2684 64.3912ZM54.3004 64.3407C53.2879 64.3407 52.6669 64.9521 52.5184 65.8629H56.0993C55.9305 64.8639 55.2758 64.3407 54.3004 64.3407ZM74.5132 64.3912C73.2375 64.3912 72.4714 65.3019 72.4714 66.4397C72.4714 67.5774 73.2409 68.4882 74.5132 68.4882C75.789 68.4882 76.6125 67.6309 76.6125 66.4397C76.6125 65.3019 75.7856 64.3912 74.5132 64.3912ZM94.3684 68.9609C94.3684 69.0145 94.4258 69.0491 94.4258 69.1531C94.4258 69.2067 94.3684 69.2414 94.3684 69.3454C94.311 69.3989 94.311 69.4336 94.2739 69.484C94.2165 69.5376 94.1794 69.5723 94.068 69.5723C94.0106 69.6259 93.9735 69.6259 93.8621 69.6259C93.8048 69.6259 93.7676 69.6259 93.6562 69.5723C93.5989 69.5723 93.5618 69.5187 93.5078 69.484C93.4504 69.4305 93.4132 69.3958 93.4132 69.3454C93.3559 69.2571 93.3559 69.2067 93.3559 69.1531C93.3559 69.0649 93.3559 69.0145 93.4132 68.9609C93.4132 68.8726 93.4706 68.8222 93.5078 68.7686C93.5651 68.7151 93.6022 68.7151 93.6562 68.6804C93.7507 68.6268 93.8048 68.6268 93.8621 68.6268C93.9566 68.6268 94.0106 68.6268 94.068 68.6804C94.1625 68.7308 94.2165 68.7308 94.2739 68.7686C94.3313 68.8065 94.311 68.8726 94.3684 68.9609ZM93.9566 69.2067C94.0511 69.2067 94.0511 69.1531 94.1051 69.1531C94.1625 69.0995 94.1625 69.0649 94.1625 69.0145C94.1625 68.964 94.1625 68.9262 94.1051 68.8758C94.0511 68.8758 94.0106 68.8222 93.8993 68.8222H93.5989V69.4336H93.7474V69.1878H93.8048L94.0106 69.4336H94.1591L93.9566 69.2067ZM108 8.78551V70.4169C107.999 72.6458 107.05 74.7832 105.363 76.3593C103.675 77.9354 101.386 78.8212 98.9989 78.822H8.99775C6.61078 78.8212 4.32183 77.9354 2.63398 76.3593C0.946139 74.7832 -0.00247769 72.6458 -0.00337219 70.4169V8.78551C-0.00247769 6.55658 0.946139 4.41919 2.63398 2.8431C4.32183 1.26701 6.61078 0.381206 8.99775 0.380371H98.9989C101.386 0.381206 103.675 1.26701 105.363 2.8431C107.05 4.41919 107.999 6.55658 108 8.78551ZM12.0015 33.2256C12.0015 46.6197 23.6453 57.4735 37.9688 57.4735C43.0698 57.4599 48.0555 56.0545 52.3125 53.4301C38.6438 43.049 38.7383 23.4559 52.3125 13.0716C48.0596 10.4389 43.0713 9.03272 37.9688 9.02818C23.6453 9.01242 12.0015 19.8821 12.0015 33.2256ZM54 52.2767C67.2199 42.6456 67.1625 23.8782 54 14.1967C40.8375 23.8782 40.7801 42.6645 54 52.2767ZM27.3173 65.636C27.3173 64.1138 26.2474 63.1148 24.5599 63.0612C23.6959 63.0612 22.7779 63.307 22.1603 64.1989C21.7114 63.4804 20.9419 63.0612 19.872 63.0612C19.4832 63.0556 19.0989 63.1389 18.7525 63.3036C18.406 63.4684 18.1079 63.7098 17.8841 64.0067V63.2377H16.3485V69.6637H17.8841C17.8841 66.3546 17.415 64.3754 19.5716 64.3754C21.4853 64.3754 21.1106 66.1623 21.1106 69.6637H22.5923C22.5923 66.4586 22.1231 64.3754 24.2798 64.3754C26.1934 64.3754 25.8154 66.1276 25.8154 69.6637H27.3544V65.636H27.3173ZM35.7379 63.2377H34.2563V64.0067C33.994 63.7012 33.6593 63.4568 33.2786 63.2927C32.8979 63.1286 32.4816 63.0494 32.0625 63.0612C30.132 63.0612 28.6504 64.4983 28.6504 66.4397C28.6504 68.3999 30.132 69.8181 32.0625 69.8181C33.0379 69.8181 33.75 69.484 34.2563 68.8726V69.6794H35.7379V63.2377ZM43.3316 67.7192C43.3316 65.0939 39.0386 66.2821 39.0386 65.0561C39.0386 64.0571 41.2695 64.2178 42.5081 64.8639L43.1258 63.7262C41.364 62.6578 37.4625 62.6767 37.4625 65.1633C37.4625 67.6656 41.7555 66.6161 41.7555 67.7885C41.7555 68.8915 39.2243 68.8033 37.8743 67.9272L37.2195 69.0302C39.3188 70.3602 43.3316 70.0797 43.3316 67.716V67.7192ZM49.9703 69.3454L49.5585 68.1541C48.8464 68.5197 47.2703 68.9231 47.2703 67.4355V64.5298H49.7273V63.2345H47.2703V61.2743H45.7313V63.2345H44.307V64.5141H45.7313V67.4387C45.7313 70.5209 48.9746 69.9599 49.9703 69.3454ZM52.461 67.0006H57.618C57.618 64.1642 56.2309 63.0423 54.3544 63.0423C52.3665 63.0423 50.9423 64.4258 50.9423 66.4207C50.9423 70.0103 55.1813 70.606 57.2805 68.9073L56.5684 67.8578C55.107 68.9798 52.893 68.8726 52.461 67.0006ZM63.5445 63.2377C62.6839 62.8879 61.371 62.9225 60.696 64.0067V63.2377H59.157V69.6637H60.696V66.0394C60.696 64.0067 62.478 64.2714 63.0956 64.5676L63.5445 63.2377ZM65.5324 66.4397C65.5324 64.4416 67.7093 63.7955 69.4136 64.9679L70.1257 63.8302C67.9489 62.2387 63.9934 63.1116 63.9934 66.4554C63.9934 69.9221 68.1919 70.6217 70.1257 69.0806L69.4136 67.9429C67.689 69.0806 65.5324 68.3999 65.5324 66.4365V66.4397ZM78.0368 63.2377H76.4977V64.0067C74.9419 62.0811 70.8919 63.1684 70.8919 66.4397C70.8919 69.8023 75.0904 70.7636 76.4977 68.8726V69.6794H78.0368V63.2377ZM84.3548 63.2377C83.9059 63.0265 82.2926 62.7303 81.5062 64.0067V63.2377H80.0246V69.6637H81.5062V66.0394C81.5062 64.1138 83.1937 64.2367 83.9059 64.5676L84.3548 63.2377ZM91.9114 60.6282H90.4298V64.0067C88.8908 62.1 84.8239 63.1148 84.8239 66.4397C84.8239 69.837 89.0426 70.7446 90.4298 68.8726V69.6794H91.9114V60.6282ZM93.339 47.48V48.2868H93.4875V47.48H93.8419V47.3414H92.9779V47.48H93.339ZM94.5742 69.1531C94.5742 69.0649 94.5742 68.9609 94.5203 68.8726C94.4629 68.8191 94.4258 68.734 94.3717 68.6804C94.3177 68.6268 94.2233 68.5921 94.1659 68.5417C94.0714 68.5417 93.96 68.4882 93.8655 68.4882C93.8081 68.4882 93.717 68.5417 93.6022 68.5417C93.5282 68.5805 93.4592 68.6271 93.3964 68.6804C93.3019 68.7308 93.2479 68.8191 93.2479 68.8726C93.1905 68.9609 93.1905 69.0649 93.1905 69.1531C93.1905 69.2067 93.1905 69.2918 93.2479 69.3989C93.2479 69.4525 93.3053 69.5376 93.3964 69.5912C93.4534 69.6509 93.5236 69.6982 93.6022 69.7299C93.6967 69.7803 93.8081 69.7803 93.8655 69.7803C93.96 69.7803 94.0714 69.7803 94.1659 69.7299C94.2233 69.6763 94.3144 69.6416 94.3717 69.5912C94.4291 69.5408 94.4663 69.4525 94.5203 69.3989C94.5742 69.2949 94.5742 69.2067 94.5742 69.1531ZM95.175 47.3225H94.9118L94.6114 47.9339L94.311 47.3225H94.0477V48.2679H94.1963V47.5494L94.4966 48.1608H94.7025L94.9658 47.5494V48.2679H95.1716L95.175 47.3225ZM95.9985 33.2256C95.9985 19.8821 84.3548 9.01242 70.0312 9.01242C64.9299 9.02436 59.9438 10.4299 55.6875 13.0558C69.2077 23.4401 69.4136 43.0836 55.6875 53.4144C59.9427 56.0425 64.9295 57.4482 70.0312 57.4578C84.3548 57.4767 95.9985 46.6197 95.9985 33.2256Z" fill="white"/>
</svg>
