<svg width="41" height="37" viewBox="0 0 41 37" fill="none" xmlns="http://www.w3.org/2000/svg">
<path d="M15.2325 0.457898C11.8463 0.439982 8.5496 3.70082 10.0546 7.74998H4.37502C3.42466 7.74998 2.51323 8.12751 1.84122 8.79952C1.16922 9.47152 0.791687 10.383 0.791687 11.3333V14.9166C0.791687 15.3918 0.980451 15.8475 1.31645 16.1835C1.65246 16.5195 2.10817 16.7083 2.58335 16.7083H18.7084V11.3333H22.2917V16.7083H38.4167C38.8919 16.7083 39.3476 16.5195 39.6836 16.1835C40.0196 15.8475 40.2084 15.3918 40.2084 14.9166V11.3333C40.2084 10.383 39.8308 9.47152 39.1588 8.79952C38.4868 8.12751 37.5754 7.74998 36.625 7.74998H30.9454C33.0417 1.89123 25.1583 -2.24752 21.5213 2.80498L20.5 4.16665L19.4788 2.76915C18.35 1.17457 16.7913 0.475815 15.2325 0.457898ZM15.125 4.16665C16.7196 4.16665 17.5259 6.10165 16.3971 7.2304C15.2684 8.35915 13.3334 7.5529 13.3334 5.95831C13.3334 5.48314 13.5221 5.02742 13.8581 4.69142C14.1941 4.35541 14.6498 4.16665 15.125 4.16665ZM25.875 4.16665C27.4696 4.16665 28.2759 6.10165 27.1471 7.2304C26.0184 8.35915 24.0834 7.5529 24.0834 5.95831C24.0834 5.48314 24.2721 5.02742 24.6081 4.69142C24.9441 4.35541 25.3998 4.16665 25.875 4.16665ZM2.58335 18.5V32.8333C2.58335 33.7837 2.96088 34.6951 3.63289 35.3671C4.30489 36.0391 5.21633 36.4166 6.16669 36.4166H34.8334C35.7837 36.4166 36.6951 36.0391 37.3671 35.3671C38.0392 34.6951 38.4167 33.7837 38.4167 32.8333V18.5H22.2917V32.8333H18.7084V18.5H2.58335Z" fill="white"/>
</svg>
