<svg width="41" height="34" viewBox="0 0 41 34" fill="none" xmlns="http://www.w3.org/2000/svg">
<path d="M40.1795 4.54744C38.7098 5.2155 37.1256 5.6545 35.4841 5.86447C37.1637 4.85284 38.4617 3.2495 39.0725 1.32169C37.4882 2.27605 35.7322 2.94411 33.8807 3.32585C32.3728 1.68435 30.2541 0.72998 27.8491 0.72998C23.3636 0.72998 19.6989 4.39474 19.6989 8.91843C19.6989 9.5674 19.7752 10.1973 19.9088 10.789C13.1137 10.4454 7.06307 7.18149 3.03565 2.23788C2.32942 3.44038 1.92858 4.85284 1.92858 6.34165C1.92858 9.18566 3.36013 11.7052 5.57426 13.1367C4.21906 13.1367 2.9593 12.755 1.85224 12.1824V12.2396C1.85224 16.2098 4.67716 19.531 8.41827 20.2754C7.21715 20.6041 5.95619 20.6498 4.73442 20.409C5.25284 22.0361 6.26815 23.4599 7.63763 24.4802C9.0071 25.5004 10.6619 26.0659 12.3693 26.097C9.475 28.3883 5.88728 29.6269 2.19581 29.6091C1.54684 29.6091 0.89787 29.5709 0.248901 29.4945C3.87549 31.8232 8.18922 33.1784 12.8083 33.1784C27.8491 33.1784 36.1139 20.6953 36.1139 9.8728C36.1139 9.51014 36.1139 9.16657 36.0949 8.80391C37.6982 7.65867 39.0725 6.20804 40.1795 4.54744Z" fill="white"/>
</svg>
