<svg width="49" height="40" viewBox="0 0 49 40" fill="none" xmlns="http://www.w3.org/2000/svg">
<path d="M48.4708 4.75002C46.7063 5.5521 44.8042 6.07919 42.8333 6.33127C44.85 5.11669 46.4083 3.19169 47.1417 0.877104C45.2396 2.02294 43.1313 2.82502 40.9083 3.28335C39.0979 1.31252 36.5542 0.166687 33.6667 0.166687C28.2813 0.166687 23.8813 4.56669 23.8813 9.99794C23.8813 10.7771 23.9729 11.5334 24.1333 12.2438C15.975 11.8313 8.71043 7.91252 3.87501 1.9771C3.02709 3.42085 2.54584 5.11669 2.54584 6.90419C2.54584 10.3188 4.26459 13.3438 6.92292 15.0625C5.29584 15.0625 3.78334 14.6042 2.45418 13.9167V13.9854C2.45418 18.7521 5.84584 22.7396 10.3375 23.6334C8.89542 24.028 7.38148 24.0829 5.91459 23.7938C6.53702 25.7474 7.75603 27.4568 9.40025 28.6817C11.0445 29.9067 13.0312 30.5856 15.0813 30.6229C11.6062 33.3739 7.29875 34.861 2.86667 34.8396C2.08751 34.8396 1.30834 34.7938 0.529175 34.7021C4.88334 37.4979 10.0625 39.125 15.6083 39.125C33.6667 39.125 43.5896 24.1375 43.5896 11.1438C43.5896 10.7084 43.5896 10.2959 43.5667 9.86044C45.4917 8.48544 47.1417 6.74377 48.4708 4.75002Z" fill="white"/>
</svg>
