<svg width="36" height="36" viewBox="0 0 36 36" fill="none" xmlns="http://www.w3.org/2000/svg">
<path fill-rule="evenodd" clip-rule="evenodd" d="M25.6349 0.821289C28.166 0.821289 30.5935 1.82678 32.3833 3.61656C34.1731 5.40634 35.1786 7.83381 35.1786 10.3649V25.6348C35.1786 28.1659 34.1731 30.5934 32.3833 32.3832C30.5935 34.1729 28.166 35.1784 25.6349 35.1784H10.3651C7.83393 35.1784 5.40646 34.1729 3.61668 32.3832C1.8269 30.5934 0.821411 28.1659 0.821411 25.6348V10.3649C0.821411 7.83381 1.8269 5.40634 3.61668 3.61656C5.40646 1.82678 7.83393 0.821289 10.3651 0.821289H25.6349ZM25.6349 4.63875H10.3651C8.84638 4.63875 7.3899 5.24204 6.31603 6.31591C5.24217 7.38978 4.63887 8.84626 4.63887 10.3649V25.6348C4.63887 27.1535 5.24217 28.6099 6.31603 29.6838C7.3899 30.7577 8.84638 31.361 10.3651 31.361H25.6349C27.1536 31.361 28.6101 30.7577 29.6839 29.6838C30.7578 28.6099 31.3611 27.1535 31.3611 25.6348V10.3649C31.3611 8.84626 30.7578 7.38978 29.6839 6.31591C28.6101 5.24204 27.1536 4.63875 25.6349 4.63875ZM18 10.3649C20.0249 10.3649 21.9669 11.1693 23.3987 12.6012C24.8305 14.033 25.6349 15.975 25.6349 17.9999C25.6349 20.0248 24.8305 21.9667 23.3987 23.3986C21.9669 24.8304 20.0249 25.6348 18 25.6348C15.9751 25.6348 14.0331 24.8304 12.6013 23.3986C11.1695 21.9667 10.3651 20.0248 10.3651 17.9999C10.3651 15.975 11.1695 14.033 12.6013 12.6012C14.0331 11.1693 15.9751 10.3649 18 10.3649ZM18 14.1824C16.9875 14.1824 16.0165 14.5846 15.3006 15.3005C14.5847 16.0164 14.1825 16.9874 14.1825 17.9999C14.1825 19.0123 14.5847 19.9833 15.3006 20.6992C16.0165 21.4151 16.9875 21.8173 18 21.8173C19.0124 21.8173 19.9834 21.4151 20.6993 20.6992C21.4152 19.9833 21.8174 19.0123 21.8174 17.9999C21.8174 16.9874 21.4152 16.0164 20.6993 15.3005C19.9834 14.5846 19.0124 14.1824 18 14.1824ZM26.5893 7.50184C27.0955 7.50184 27.581 7.70294 27.9389 8.0609C28.2969 8.41886 28.498 8.90435 28.498 9.41057C28.498 9.9168 28.2969 10.4023 27.9389 10.7603C27.581 11.1182 27.0955 11.3193 26.5893 11.3193C26.083 11.3193 25.5975 11.1182 25.2396 10.7603C24.8816 10.4023 24.6805 9.9168 24.6805 9.41057C24.6805 8.90435 24.8816 8.41886 25.2396 8.0609C25.5975 7.70294 26.083 7.50184 26.5893 7.50184Z" fill="white"/>
</svg>
