<svg width="38" height="40" viewBox="0 0 38 40" fill="none" xmlns="http://www.w3.org/2000/svg">
<path d="M18.8929 0.912598C8.5593 0.912598 0.172638 9.46371 0.172638 19.9999C0.172638 30.5361 8.5593 39.0872 18.8929 39.0872C29.2264 39.0872 37.6131 30.5361 37.6131 19.9999C37.6131 9.46371 29.2264 0.912598 18.8929 0.912598ZM27.5791 13.892C27.2983 16.9078 26.0814 24.2373 25.4637 27.6157C25.2016 29.0473 24.6774 29.5245 24.1907 29.5817C23.1049 29.6772 22.2812 28.8564 21.2329 28.1502C19.5855 27.0431 18.6495 26.356 17.0583 25.2871C15.205 24.0464 16.4031 23.3593 17.4701 22.2522C17.7509 21.9659 22.5433 17.5185 22.6369 17.1177C22.6499 17.057 22.6482 16.994 22.6319 16.9341C22.6156 16.8742 22.5852 16.8193 22.5433 16.7741C22.431 16.6787 22.2812 16.7169 22.1502 16.736C21.9817 16.7741 19.3609 18.5493 14.2503 22.0613C13.5014 22.5767 12.8275 22.8439 12.2285 22.8248C11.5545 22.8057 10.2816 22.4431 9.32683 22.1186C8.14746 21.7368 7.23017 21.5269 7.30505 20.8588C7.34249 20.5153 7.8105 20.1717 8.69035 19.809C14.1567 17.3849 17.7884 15.7816 19.6042 15.0181C24.8085 12.804 25.8755 12.4222 26.5869 12.4222C26.7367 12.4222 27.0923 12.4604 27.317 12.6513C27.5042 12.804 27.5603 13.0139 27.5791 13.1666C27.5603 13.2812 27.5978 13.6247 27.5791 13.892Z" fill="white"/>
</svg>
