<svg width="41" height="30" viewBox="0 0 41 30" fill="none" xmlns="http://www.w3.org/2000/svg">
<path d="M39.9828 5.35124C39.7547 4.50382 39.308 3.73117 38.6875 3.11063C38.0669 2.49009 37.2943 2.04341 36.4469 1.81532C33.3261 0.970703 20.7857 0.970703 20.7857 0.970703C20.7857 0.970703 8.24537 0.970703 5.12459 1.81532C4.27717 2.04341 3.50453 2.49009 2.88399 3.11063C2.26344 3.73117 1.81677 4.50382 1.58867 5.35124C1.00595 8.53395 0.723176 11.7643 0.744058 14.9999C0.723176 18.2354 1.00595 21.4658 1.58867 24.6485C1.81677 25.4959 2.26344 26.2686 2.88399 26.8891C3.50453 27.5096 4.27717 27.9563 5.12459 28.1844C8.24537 29.029 20.7857 29.029 20.7857 29.029C20.7857 29.029 33.3261 29.029 36.4469 28.1844C37.2943 27.9563 38.0669 27.5096 38.6875 26.8891C39.308 26.2686 39.7547 25.4959 39.9828 24.6485C40.5655 21.4658 40.8483 18.2354 40.8274 14.9999C40.8483 11.7643 40.5655 8.53395 39.9828 5.35124ZM16.7774 21.0124V8.98737L27.1847 14.9999L16.7774 21.0124Z" fill="white"/>
</svg>
