<svg width="142" height="141" viewBox="0 0 142 141" fill="none" xmlns="http://www.w3.org/2000/svg">
<path fill-rule="evenodd" clip-rule="evenodd" d="M54.0173 138.037C91.5612 147.397 129.584 124.549 138.944 87.0169C148.303 49.4788 125.45 11.4561 87.9061 2.10228C50.3855 -7.26326 12.3629 15.5901 3.009 53.134C-6.35071 90.6662 16.4968 128.689 54.0232 138.043L54.0173 138.037ZM79.0193 38.6594C89.2607 39.3834 97.4118 42.3846 98.4803 51.7501C99.2744 58.605 96.4717 62.7798 91.9232 65.1971C99.5138 66.8786 104.331 71.287 103.572 81.3765C102.632 93.9009 93.3654 97.4217 80.0645 98.4144L80.2864 111.552L72.3689 111.698L72.1412 98.7355C70.0917 98.7705 67.9897 98.7939 65.8118 98.7822L66.0454 111.803L58.1279 111.943L57.8943 98.7822L55.658 98.7997C54.5253 98.8056 53.3809 98.8114 52.2365 98.8348L41.925 99.0099L43.3322 89.5276C43.3322 89.5276 49.1944 89.5159 49.0893 89.4283C51.3314 89.3816 51.8978 87.7643 52.0204 86.7483L51.6643 65.9795L52.2306 65.9678H52.4992C52.2201 65.9358 51.9393 65.9221 51.6584 65.9269L51.4015 51.0962C51.0687 49.4963 49.9943 47.6513 46.7888 47.7096C46.8764 47.5929 41.0317 47.8089 41.0317 47.8089L40.8799 39.3542L51.8102 39.1674V39.2083C53.451 39.1791 55.1384 39.1207 56.8492 39.0565L56.6273 26.0416L64.5448 25.9073L64.7667 38.6594C66.8803 38.5835 69.0057 38.5018 71.0902 38.4667L70.8683 25.7964L78.7916 25.6563L79.0193 38.6711V38.6594Z" fill="#20BAA0"/>
</svg>
