<svg width="131" height="110" viewBox="0 0 131 110" fill="none" xmlns="http://www.w3.org/2000/svg">
<path d="M117.2 73.875V65.0625C117.2 56.8375 108.975 50.375 100.75 50.375C92.525 50.375 84.3 56.8375 84.3 65.0625V73.875C80.775 73.875 77.25 77.4 77.25 80.925V101.488C77.25 105.6 80.775 109.125 84.3 109.125H116.613C120.725 109.125 124.25 105.6 124.25 102.075V81.5125C124.25 77.4 120.725 73.875 117.2 73.875ZM109.562 73.875H91.9375V65.0625C91.9375 60.3625 96.05 57.425 100.75 57.425C105.45 57.425 109.562 60.3625 109.562 65.0625V73.875ZM83.125 44.5C77.8375 48.6125 74.3125 53.9 73.1375 60.3625C70.7875 61.5375 68.4375 62.125 65.5 62.125C55.5125 62.125 47.875 54.4875 47.875 44.5C47.875 34.5125 55.5125 26.875 65.5 26.875C75.4875 26.875 83.125 34.5125 83.125 44.5ZM65.5 88.5625C36.125 88.5625 10.8625 70.35 0.875 44.5C10.8625 18.65 36.125 0.4375 65.5 0.4375C94.875 0.4375 120.137 18.65 130.125 44.5C128.95 47.4375 127.187 50.375 126.012 53.3125C123.662 49.2 120.725 45.675 116.613 43.325C106.625 23.9375 87.2375 12.1875 65.5 12.1875C43.175 12.1875 23.2 24.525 13.8 44.5C23.7875 64.475 43.7625 76.8125 65.5 76.8125H66.0875C65.5 77.9875 65.5 79.75 65.5 80.925V88.5625Z" fill="#20BAA0"/>
</svg>
