<svg width="119" height="95" viewBox="0 0 119 95" fill="none" xmlns="http://www.w3.org/2000/svg">
<path d="M12.5 0.5C9.38371 0.5 6.39505 1.73794 4.19149 3.94149C1.98794 6.14505 0.75 9.13371 0.75 12.25V76.875C0.75 79.9913 1.98794 82.9799 4.19149 85.1835C6.39505 87.3871 9.38371 88.625 12.5 88.625V94.5H24.25V88.625H88.875V94.5H100.625V88.625C103.741 88.625 106.73 87.3871 108.934 85.1835C111.137 82.9799 112.375 79.9913 112.375 76.875V71H118.25V59.25H112.375V29.875H118.25V18.125H112.375V12.25C112.375 9.13371 111.137 6.14505 108.934 3.94149C106.73 1.73794 103.741 0.5 100.625 0.5H12.5ZM12.5 12.25H100.625V76.875H12.5V12.25ZM68.3125 21.0625C62.0799 21.0625 56.1026 23.5384 51.6955 27.9455C47.2884 32.3526 44.8125 38.3299 44.8125 44.5625C44.8125 50.7951 47.2884 56.7724 51.6955 61.1795C56.1026 65.5866 62.0799 68.0625 68.3125 68.0625C74.5451 68.0625 80.5224 65.5866 84.9295 61.1795C89.3366 56.7724 91.8125 50.7951 91.8125 44.5625C91.8125 38.3299 89.3366 32.3526 84.9295 27.9455C80.5224 23.5384 74.5451 21.0625 68.3125 21.0625ZM18.375 29.875V59.25H30.125V29.875H18.375ZM68.3125 32.8125C71.4288 32.8125 74.4174 34.0504 76.621 36.254C78.8246 38.4576 80.0625 41.4462 80.0625 44.5625C80.0625 47.6788 78.8246 50.6674 76.621 52.871C74.4174 55.0746 71.4288 56.3125 68.3125 56.3125C65.1962 56.3125 62.2076 55.0746 60.004 52.871C57.8004 50.6674 56.5625 47.6788 56.5625 44.5625C56.5625 41.4462 57.8004 38.4576 60.004 36.254C62.2076 34.0504 65.1962 32.8125 68.3125 32.8125Z" fill="#20BAA0"/>
</svg>
