<svg width="130" height="44" viewBox="0 0 130 44" fill="none" xmlns="http://www.w3.org/2000/svg">
<path d="M120.369 42.4101L119.15 36.3163H105.533L103.366 42.3667L92.4517 42.3884C97.6477 29.8929 102.855 17.4021 108.073 4.9159C108.962 2.79798 110.538 1.72007 112.862 1.7309C114.638 1.74715 117.536 1.74715 121.561 1.73631L130 42.3938L120.369 42.4101ZM108.599 27.9692H117.374L114.097 12.6942L108.599 27.9692ZM38.2417 1.72548L49.2158 1.73631L32.2508 42.4155L21.1413 42.4046C18.3476 31.6597 15.5887 20.9058 12.8646 10.143C12.3229 7.99798 11.2504 6.49757 9.18667 5.78798C6.1383 4.76653 3.07578 3.78782 0 2.85215L0 1.74173H17.5337C20.5671 1.74173 22.3383 3.20965 22.9071 6.22131C23.4812 9.2384 24.9221 16.9192 27.2404 29.2638L38.2417 1.72548ZM64.2958 1.73631L55.6183 42.4046L45.175 42.3938L53.8417 1.72548L64.2958 1.73631ZM85.475 0.983398C88.6004 0.983398 92.5383 1.9584 94.8025 2.85215L92.9717 11.2859C90.9242 10.4626 87.555 9.35215 84.7221 9.39007C80.6054 9.46048 78.0596 11.1884 78.0596 12.8459C78.0596 15.5434 82.4796 16.903 87.0296 19.8496C92.2242 23.208 92.9067 26.2251 92.8417 29.5021C92.7712 36.3055 87.0296 43.0167 74.9179 43.0167C69.3929 42.9355 67.3996 42.4697 62.8929 40.8717L64.7996 32.0696C69.3875 33.9926 71.3321 34.6046 75.2537 34.6046C78.845 34.6046 81.9271 33.153 81.9542 30.6234C81.9758 28.8251 80.8708 27.9313 76.8408 25.7105C72.8108 23.4842 67.1558 20.4021 67.2317 14.2163C67.3237 6.29715 74.8258 0.983398 85.4804 0.983398H85.475Z" fill="white"/>
</svg>
