<svg width="106" height="106" viewBox="0 0 106 106" fill="none" xmlns="http://www.w3.org/2000/svg">
<path d="M93.4761 0.159668H11.732C5.30921 0.159668 0.0542297 5.41465 0.0542297 11.8374V93.5815C0.0542297 100.004 5.30921 105.259 11.732 105.259H93.4761C99.8988 105.259 105.154 100.004 105.154 93.5815V11.8374C105.154 5.41465 99.8988 0.159668 93.4761 0.159668ZM58.4429 24.099L64.8656 17.6763L73.04 25.8507L81.2144 17.6763L87.6372 24.099L79.4628 32.2734L87.6372 40.4478L81.2144 46.8706L73.04 38.6962L64.8656 46.8706L58.4429 40.4478L66.6173 32.2734L58.4429 24.099ZM18.7386 27.6023H47.9329V36.3606H18.7386V27.6023ZM49.6846 76.0649H38.0069V87.7426H29.2486V76.0649H17.5708V67.3066H29.2486V55.6289H38.0069V67.3066H49.6846V76.0649ZM87.6372 83.0716H58.4429V74.3132H87.6372V83.0716ZM87.6372 69.0583H58.4429V60.3H87.6372V69.0583Z" fill="#20BAA0"/>
</svg>
